# xmcd
# 
# Track frame offsets:
#     150
#     10207
#     21675
#     28612
#     39462
#     48217
#     55437
#     67455
#     77585
#     86362
#     95267
#     105877
#     114285
#     122032
#     132337
#     145995
#     153265
#     161915
#     170657
#     178310
#     183187
#     191747
# 
# Disc length: 2688
# 
# Revision: 8
# Processed by: cddbd v1.5.2PL0 Copyright (c) Steve Scherf et al.
# Submitted via: fre:ac v1.0.17
# 
DISCID=2e0a7e16
DTITLE=Ramones - Ramones (Expanded and Remastered)
DYEAR=1976
DGENRE=Punk Rock
TTITLE0=Blitzkrieg Bop
TTITLE1=Beat On The Brat
TTITLE2=Judy Is A Punk
TTITLE3=I Wanna Be Your Boyfriend
TTITLE4=Chain Saw
TTITLE5=Now I Wanna Sniff Some Glue
TTITLE6=I Don't Wanna Go Down To The Basement
TTITLE7=Loudmouth
TTITLE8=Havana Affair
TTITLE9=Listen To My Heart
TTITLE10=53rd and 3rd
TTITLE11=Let's Dance
TTITLE12=I Don't Want To Walk Around With You
TTITLE13=Today Your Love, Tomorrow The World
TTITLE14=I Wanna Be Your Boyfriend (Demo)
TTITLE15=Judy Is A Punk (Demo)
TTITLE16=I Don't Care (Demo)
TTITLE17=I Can't Be (Demo)
TTITLE18=Now I Wanna Sniff Some Glue (Demo)
TTITLE19=I Don't Wanna Be Learned - I Don't Wanna Be Tamed (Demo)
TTITLE20=You Should Never Have Opened That Door (Demo)
TTITLE21=Blitzkrieg Bop (Single Version)
EXTD=YEAR: 1976
EXTT0=
EXTT1=
EXTT2=
EXTT3=
EXTT4=
EXTT5=
EXTT6=
EXTT7=
EXTT8=
EXTT9=
EXTT10=
EXTT11=
EXTT12=
EXTT13=
EXTT14=
EXTT15=
EXTT16=
EXTT17=
EXTT18=
EXTT19=
EXTT20=
EXTT21=
PLAYORDER=
